# xmcd CD database file
#
# Track frame offsets:
#	150
#	50019
#	80071
#	118673
#	153383
#	174014
#	203191
#	235782
#	267431
#
# Disc length: 3768 seconds
#
# Revision: 0
# Processed by: cddbd v1.5.2PL0 Copyright (c) Steve Scherf et al.
# Submitted via: CDex 1.51
#
DISCID=740eb609
DTITLE=Nenad Vasilic - Honey And Blood
DYEAR=2006
DGENRE=Jazz
TTITLE0=Seven
TTITLE1=Zvijezda reloaded
TTITLE2=Intro for Shaban
TTITLE3=Balkan Blues
TTITLE4=CU@11
TTITLE5=Mr. A.B.
TTITLE6=Salsa
TTITLE7=Signal Yok
TTITLE8=Devojko mari hubava
EXTD=YEAR: 2006
EXTT0=
EXTT1=
EXTT2=
EXTT3=
EXTT4=
EXTT5=
EXTT6=
EXTT7=
EXTT8=
PLAYORDER=
